0
SECTION
2
HEADER
9
$INSUNITS
70
4
9
$ACADVER
1
AC1014
9
$HANDSEED
5
FFFF
0
ENDSEC
0
SECTION
2
TABLES
0
TABLE
2
VPORT
5
8
100
AcDbSymbolTable
0
ENDTAB
0
TABLE
2
LTYPE
5
5
100
AcDbSymbolTable
0
LTYPE
5
14
100
AcDbSymbolTableRecord
100
AcDbLinetypeTableRecord
2
BYBLOCK
70
0
0
LTYPE
5
15
100
AcDbSymbolTableRecord
100
AcDbLinetypeTableRecord
2
BYLAYER
70
0
0
ENDTAB
0
TABLE
2
LAYER
5
2
100
AcDbSymbolTable
70
2
0
LAYER
5
50
100
AcDbSymbolTableRecord
100
AcDbLayerTableRecord
2
0
70
0
6
CONTINUOUS
0
ENDTAB
0
TABLE
2
STYLE
5
3
100
AcDbSymbolTable
70
1
0
STYLE
5
11
100
AcDbSymbolTableRecord
100
AcDbTextStyleTableRecord
2
STANDARD
70
0
0
ENDTAB
0
TABLE
2
VIEW
5
6
100
AcDbSymbolTable
70
0
0
ENDTAB
0
TABLE
2
UCS
5
7
100
AcDbSymbolTable
70
0
0
ENDTAB
0
TABLE
2
APPID
5
9
100
AcDbSymbolTable
70
2
0
APPID
5
12
100
AcDbSymbolTableRecord
100
AcDbRegAppTableRecord
2
ACAD
70
0
0
ENDTAB
0
TABLE
2
DIMSTYLE
5
A
100
AcDbSymbolTable
70
1
0
ENDTAB
0
TABLE
2
BLOCK_RECORD
5
1
100
AcDbSymbolTable
70
1
0
BLOCK_RECORD
5
1F
100
AcDbSymbolTableRecord
100
AcDbBlockTableRecord
2
*MODEL_SPACE
0
BLOCK_RECORD
5
1B
100
AcDbSymbolTableRecord
100
AcDbBlockTableRecord
2
*PAPER_SPACE
0
ENDTAB
0
ENDSEC
0
SECTION
2
BLOCKS
0
BLOCK
5
20
100
AcDbEntity
100
AcDbBlockBegin
2
*MODEL_SPACE
0
ENDBLK
5
21
100
AcDbEntity
100
AcDbBlockEnd
0
BLOCK
5
1C
100
AcDbEntity
100
AcDbBlockBegin
2
*PAPER_SPACE
0
ENDBLK
5
1D
100
AcDbEntity
100
AcDbBlockEnd
0
ENDSEC
0
SECTION
2
ENTITIES
0
CIRCLE
5
100
100
AcDbEntity
8
0
100
AcDbCircle
10
-19.999992230915069
20
-13.250000366343905
30
0
40
1.750000000000008
210
0
220
-0
230
1
0
CIRCLE
5
101
100
AcDbEntity
8
0
100
AcDbCircle
10
-19.999992187342031
20
13.249999523161403
30
0
40
1.750000000000008
210
0
220
-0
230
1
0
LWPOLYLINE
5
102
100
AcDbEntity
8
0
100
AcDbPolyline
90
4
70
1
43
0.0
10
-166.85315853262227
20
52.879573071951292
10
-173.92422634448775
20
45.808505260085795
42
0.99999999999999989
10
-171.44935261033484
20
43.33363152593293
10
-164.37828479846931
20
50.404699337798384
42
0.99999999999999989
0
LINE
5
103
100
AcDbEntity
8
0
100
AcDbLine
10
-171.44935275283888
20
-43.333631871069286
30
0
11
-164.37828496422682
21
-50.404699706188211
31
0
0
ARC
5
104
100
AcDbEntity
8
0
100
AcDbCircle
10
-165.61572183537263
20
-51.642136569195301
30
-1.970575965456774e-44
40
1.7500000000000029
210
2.2312355746414254e-30
220
-2.2312355893164318e-30
230
1
100
AcDbArc
50
-135.00000018841993
51
44.999999811580736
0
LINE
5
105
100
AcDbEntity
8
0
100
AcDbLine
10
-166.85315870651846
20
-52.879573432202392
30
3.8898230407201845e-44
11
-173.92422649513048
21
-45.808505597083489
31
0
0
ARC
5
106
100
AcDbEntity
8
0
100
AcDbCircle
10
-172.68678962398468
20
-44.571068734076391
30
0
40
1.7499999999999902
210
0
220
-0
230
1
100
AcDbArc
50
44.999999811581063
51
224.99999981158089
0
LWPOLYLINE
5
107
100
AcDbEntity
8
0
100
AcDbPolyline
90
4
70
1
43
0.0
10
-189.64999262988567
20
34.000000581143894
10
-158.14999210834503
20
34.00000058114388
42
0.99999999999999989
10
-158.14999210834503
20
37.500000581143894
10
-189.64999262988562
20
37.50000058114388
42
0.99999999999999989
0
LWPOLYLINE
5
108
100
AcDbEntity
8
0
100
AcDbPolyline
90
4
70
1
43
0.0
10
-194.64999220700099
20
-30.000000641367951
10
-158.14999220700099
20
-30.000000761399388
42
0.99999999999999989
10
-158.14999219549111
20
-26.500000761399388
10
-194.64999219549111
20
-26.500000641367972
42
0.99999999999999989
0
LWPOLYLINE
5
109
100
AcDbEntity
8
0
100
AcDbPolyline
90
4
70
1
43
0.0
10
-194.64999210834503
20
26.500000372527644
10
-158.14999210834503
20
26.500000372527627
42
0.99999999999999989
10
-158.14999210834503
20
30.000000372527662
10
-194.64999210834497
20
30.000000372527623
42
0.99999999999999989
0
LWPOLYLINE
5
110
100
AcDbEntity
8
0
100
AcDbPolyline
90
4
70
1
43
0.0
10
-158.1499922201551
20
-34.000000970015634
42
-0.99999999999999989
10
-158.14999223166498
20
-37.500000970015648
10
-189.64999275320565
20
-37.500000866426888
42
-0.99999999999999989
10
-189.64999274169577
20
-34.000000866426888
0
LWPOLYLINE
5
111
100
AcDbEntity
8
0
100
AcDbPolyline
90
28
70
1
43
0.0
10
-278.39999397099018
20
-32.000000476838593
42
-0.41421356237308898
10
-281.39999397099024
20
-29.000000476838576
10
-281.39999397099018
20
28.999999523161456
42
-0.41421356237308898
10
-278.39999397099018
20
31.999999523161456
10
-259.39999397099018
20
31.999999523161421
42
-0.41421356237309465
10
-256.39999397099024
20
28.999999523161453
10
-256.39999397099018
20
24.999999523161446
10
-206.39999397099018
20
24.999999523161456
10
-156.39999397099015
20
74.999999523161449
10
-156.39999397099015
20
89.999999523161463
42
-0.41421356237309553
10
-146.39999397099015
20
99.999999523161478
10
-46.39999397099011
20
99.999999523161449
42
-0.41421356237309531
10
-36.399993970990103
20
89.999999523161449
10
-36.399993970990124
20
24.999999523161428
10
3.6000060290098879
20
24.999999523161456
42
-0.41421356237309476
10
13.600006029009927
20
14.999999523161414
10
13.600006029009894
20
-15.000000476838595
42
-0.41421356237309442
10
3.6000060290099123
20
-25.000000476838604
10
-36.399993970990103
20
-25.000000476838586
10
-36.399993970990081
20
-90.000000476838622
42
-0.41421356237309631
10
-46.399993970990145
20
-100.00000047683864
10
-146.39999397099018
20
-100.00000047683861
42
-0.41421356237309553
10
-156.39999397099015
20
-90.000000476838608
10
-156.39999397099018
20
-75.000000476838608
10
-206.39999397099018
20
-25.000000476838579
10
-256.39999397099024
20
-25.000000476838572
10
-256.39999397099018
20
-29.000000476838576
42
-0.4142135623730942
10
-259.39999397099018
20
-32.000000476838572
0
CIRCLE
5
112
100
AcDbEntity
8
0
100
AcDbCircle
10
7.8126579694526299e-06
20
-17.50014420715971
30
0
40
1.750000000000008
210
-4.5882678303188103e-60
220
-4.4841550858394146e-44
230
1
0
CIRCLE
5
113
100
AcDbEntity
8
0
100
AcDbCircle
10
7.8126579694526299e-06
20
17.499856746514272
30
0
40
1.750000000000008
210
-4.5882678303188103e-60
220
-4.4841550858394146e-44
230
1
0
CIRCLE
5
114
100
AcDbEntity
8
0
100
AcDbCircle
10
-222.79999218734196
20
17.499856269674741
30
0
40
1.7499999999999991
210
-4.5882678303188805e-60
220
-4.4841550858394146e-44
230
1
0
CIRCLE
5
115
100
AcDbEntity
8
0
100
AcDbCircle
10
-222.79999218734162
20
-17.500143730325203
30
0
40
1.7499999999999991
210
-4.5882678303188805e-60
220
-4.4841550858394146e-44
230
1
0
LWPOLYLINE
5
116
100
AcDbEntity
8
0
100
AcDbPolyline
90
4
70
1
43
0.0
10
-116.39999397099015
20
-46.000001460315232
42
-0.99999999999999989
10
-116.39999397099015
20
-42.500001460315239
10
-101.39999397099015
20
-42.500001460315232
42
-0.99999999999999989
10
-101.39999397099015
20
-46.000001460315247
0
LWPOLYLINE
5
117
100
AcDbEntity
8
0
100
AcDbPolyline
90
4
70
1
43
0.0
10
-116.39999397099015
20
34.000000506638067
10
-101.39999397099015
20
34.000000506638074
42
0.99999999999999989
10
-101.39999397099015
20
37.500000506638074
10
-116.39999397099015
20
37.500000506638081
42
0.99999999999999989
0
LWPOLYLINE
5
118
100
AcDbEntity
8
0
100
AcDbPolyline
90
4
70
1
43
0.0
10
-91.399993970990153
20
42.500000506638074
10
-76.399993970990153
20
42.500000506638081
42
0.99999999999999989
10
-76.399993970990138
20
46.000000506638081
10
-91.399993970990153
20
46.000000506638088
42
0.99999999999999989
0
LWPOLYLINE
5
119
100
AcDbEntity
8
0
100
AcDbPolyline
90
4
70
1
43
0.0
10
-91.399993970990153
20
-46.000001460315247
10
-76.399993970990153
20
-46.000001460315247
42
0.99999999999999989
10
-76.399993970990138
20
-42.500001460315232
10
-91.399993970990153
20
-42.500001460315239
42
0.99999999999999989
0
LWPOLYLINE
5
120
100
AcDbEntity
8
0
100
AcDbPolyline
90
4
70
1
43
0.0
10
-116.39999397099015
20
-37.500001460315232
42
-0.99999999999999989
10
-116.39999397099015
20
-34.000001460315232
10
-101.39999397099015
20
-34.000001460315225
42
-0.99999999999999989
10
-101.39999397099015
20
-37.500001460315232
0
LWPOLYLINE
5
121
100
AcDbEntity
8
0
100
AcDbPolyline
90
4
70
1
43
0.0
10
-116.39999397099015
20
42.500000506638074
10
-101.39999397099015
20
42.500000506638081
42
0.99999999999999989
10
-101.39999397099015
20
46.000000506638081
10
-116.39999397099015
20
46.000000506638088
42
0.99999999999999989
0
LWPOLYLINE
5
122
100
AcDbEntity
8
0
100
AcDbPolyline
90
4
70
1
43
0.0
10
-91.399993970990153
20
34.000000506638067
10
-76.399993970990153
20
34.000000506638067
42
0.99999999999999989
10
-76.399993970990138
20
37.500000506638074
10
-91.399993970990153
20
37.500000506638081
42
0.99999999999999989
0
LWPOLYLINE
5
123
100
AcDbEntity
8
0
100
AcDbPolyline
90
4
70
1
43
0.0
10
-76.399993970990138
20
-34.000001460315225
10
-91.399993970990153
20
-34.000001460315225
42
0.99999999999999989
10
-91.399993970990153
20
-37.500001460315239
10
-76.399993970990153
20
-37.500001460315239
42
0.99999999999999989
0
LWPOLYLINE
5
124
100
AcDbEntity
8
0
100
AcDbPolyline
90
8
70
1
43
0.0
10
-111.39999397099015
20
-26.000000476838597
10
-111.39999397099015
20
-27.000000476838586
42
0.41421356237308982
10
-110.39999397099015
20
-28.000000476838586
10
-82.399993970990153
20
-28.000000476838586
42
0.41421356237309503
10
-81.399993970990153
20
-27.000000476838583
10
-81.399993970990167
20
-26.000000476838593
42
0.41421356237308982
10
-82.399993970990138
20
-25.000000476838593
10
-110.39999397099012
20
-25.000000476838593
42
0.41421356237309503
0
LWPOLYLINE
5
125
100
AcDbEntity
8
0
100
AcDbPolyline
90
8
70
1
43
0.0
10
-81.399993970990153
20
25.999999523161442
10
-81.399993970990153
20
26.999999523161435
42
0.41421356237308982
10
-82.399993970990138
20
27.999999523161428
10
-110.39999397099012
20
27.999999523161428
42
0.41421356237309503
10
-111.39999397099015
20
26.999999523161428
10
-111.39999397099012
20
25.999999523161435
42
0.41421356237308982
10
-110.39999397099015
20
24.999999523161435
10
-82.399993970990153
20
24.999999523161442
42
0.41421356237309503
0
CIRCLE
5
126
100
AcDbEntity
8
0
100
AcDbCircle
10
-146.39999397099015
20
-50.000000476838586
30
0
40
2.7500000000000044
210
6.3108872417680944e-30
220
-6.4574129034062959e-46
230
1
0
CIRCLE
5
127
100
AcDbEntity
8
0
100
AcDbCircle
10
-46.39999397099011
20
49.999999523161421
30
0
40
2.7499999999999867
210
6.3108872417680944e-30
220
-4.5487292148734776e-44
230
1
0
CIRCLE
5
128
100
AcDbEntity
8
0
100
AcDbCircle
10
-46.399993970990103
20
-90.000000476838622
30
0
40
2.7500000000000218
210
-9.1765356606377655e-60
220
-8.9683101716788312e-44
230
1
0
CIRCLE
5
129
100
AcDbEntity
8
0
100
AcDbCircle
10
-146.39999397099015
20
89.999999523161478
30
0
40
2.7500000000000044
210
6.3108872417680944e-30
220
-6.4574129034062959e-46
230
1
0
CIRCLE
5
130
100
AcDbEntity
8
0
100
AcDbCircle
10
-146.39999397099018
20
-90.000000476838622
30
0
40
2.7500000000000044
210
6.3108872417680944e-30
220
-6.4574129034062959e-46
230
1
0
CIRCLE
5
131
100
AcDbEntity
8
0
100
AcDbCircle
10
-46.399993970990103
20
89.999999523161449
30
0
40
2.7499999999999867
210
6.3108872417680944e-30
220
-4.5487292148734776e-44
230
1
0
CIRCLE
5
132
100
AcDbEntity
8
0
100
AcDbCircle
10
-46.39999397099011
20
-50.000000476838608
30
0
40
2.7499999999999867
210
6.3108872417680944e-30
220
-4.5487292148734776e-44
230
1
0
CIRCLE
5
133
100
AcDbEntity
8
0
100
AcDbCircle
10
-146.39999397099015
20
49.999999523161442
30
0
40
2.7500000000000044
210
6.3108872417680944e-30
220
-6.4574129034062959e-46
230
1
0
CIRCLE
5
134
100
AcDbEntity
8
0
100
AcDbCircle
10
-52.399991959333363
20
30.999999523161431
30
0
40
2.7499999999999867
210
6.3108872417680944e-30
220
-4.5487292148734776e-44
230
1
0
CIRCLE
5
135
100
AcDbEntity
8
0
100
AcDbCircle
10
-52.399991959333363
20
-31.000000476838597
30
0
40
2.7499999999999867
210
6.3108872417680944e-30
220
-4.5487292148734776e-44
230
1
0
CIRCLE
5
136
100
AcDbEntity
8
0
100
AcDbCircle
10
-140.39999195933342
20
30.999999523161442
30
0
40
2.7500000000000044
210
6.3108872417680944e-30
220
-6.4574129034062959e-46
230
1
0
CIRCLE
5
137
100
AcDbEntity
8
0
100
AcDbCircle
10
-140.39999195933342
20
-31.000000476838586
30
0
40
2.7500000000000044
210
6.3108872417680944e-30
220
-6.4574129034062959e-46
230
1
0
LWPOLYLINE
5
138
100
AcDbEntity
8
0
100
AcDbPolyline
90
20
70
1
43
0.0
10
-65.967057914733758
20
88.426712880608164
10
-66.630754203796272
20
87.763016591545679
10
-67.056871147155618
20
86.926712880608164
10
-67.203698844909525
20
85.999661336418725
10
-67.056871147155618
20
85.072609792229258
10
-66.630754203796272
20
84.236306081291758
10
-65.967057914733758
20
83.572609792229272
10
-65.130754203796215
20
83.14649094152125
10
-64.203698844909525
20
82.999661336418725
10
-63.276651115417373
20
83.14649094152125
10
-62.44034740447983
20
83.572609792229272
10
-61.776651115417351
20
84.236306081291787
10
-61.350534172057998
20
85.072609792229258
10
-61.203698844909553
20
85.999661336418725
10
-61.350534172057998
20
86.926712880608193
10
-61.776651115417387
20
87.763016591545679
10
-62.44034740447983
20
88.426712880608164
10
-63.276651115417337
20
88.852829823967539
10
-64.203698844909525
20
88.999661336418711
10
-65.130754203796243
20
88.852829823967539
0
LWPOLYLINE
5
139
100
AcDbEntity
8
0
100
AcDbPolyline
90
20
70
1
43
0.0
10
-65.967057914733715
20
64.426711926933876
10
-66.630754203796243
20
63.763017545220023
10
-67.05687114715559
20
62.926711926933876
10
-67.203698844909496
20
61.99966133641874
10
-67.05687114715559
20
61.072610745903617
10
-66.630754203796272
20
60.236305127617477
10
-65.967057914733758
20
59.572610269066445
10
-65.130754203796215
20
59.146491895195609
10
-64.203698844909525
20
58.999661336418747
10
-63.276651115417337
20
59.146491895195595
10
-62.44034740447983
20
59.572610269066459
10
-61.776651115417316
20
60.236305127617477
10
-61.350534172057998
20
61.07261074590361
10
-61.203698844909518
20
61.999661336418754
10
-61.350534172057998
20
62.926711926933891
10
-61.776651115417351
20
63.763017545220009
10
-62.44034740447983
20
64.426711926933876
10
-63.276651115417337
20
64.852830777641884
10
-64.203698844909525
20
64.99966133641874
10
-65.130754203796243
20
64.852830777641884
0
LWPOLYLINE
5
140
100
AcDbEntity
8
0
100
AcDbPolyline
90
20
70
1
43
0.0
10
-129.52486679077117
20
88.852829823967511
10
-130.36117145538302
20
88.426712880608122
10
-131.0248667907712
20
87.763016591545622
10
-131.45098516464205
20
86.926712880608136
10
-131.59781572341893
20
85.999661336418683
10
-131.45098516464205
20
85.072609792229215
10
-131.0248667907712
20
84.236306081291715
10
-130.36117145538302
20
83.572609792229215
10
-129.5248667907712
20
83.146490941521193
10
-128.5978157234189
20
82.999661336418669
10
-127.67076465606664
20
83.146490941521193
10
-126.83445999145482
20
83.57260979222923
10
-126.17076465606664
20
84.23630608129173
10
-125.74464580535862
20
85.072609792229215
10
-125.59781524658175
20
85.999661336418683
10
-125.7446458053586
20
86.926712880608136
10
-126.17076465606661
20
87.763016591545636
10
-126.83445999145478
20
88.426712880608122
10
-127.67076465606661
20
88.852829823967483
10
-128.5978157234189
20
88.999661336418669
0
LWPOLYLINE
5
141
100
AcDbEntity
8
0
100
AcDbPolyline
90
20
70
1
43
0.0
10
-125.7446458053586
20
61.07261074590356
10
-125.59781524658175
20
61.999661336418697
10
-125.7446458053586
20
62.926711926933834
10
-126.17076465606661
20
63.763017545219974
10
-126.83445999145479
20
64.426711926933834
10
-127.67076465606661
20
64.852830777641842
10
-128.5978157234189
20
64.999661336418697
10
-129.52486679077117
20
64.852830777641827
10
-130.36117145538302
20
64.426711926933834
10
-131.0248667907712
20
63.763017545219967
10
-131.45098516464205
20
62.926711926933827
10
-131.5978157234189
20
61.999661336418697
10
-131.45098516464205
20
61.07261074590356
10
-131.0248667907712
20
60.236305127617428
10
-130.36117145538302
20
59.572610269066402
10
-129.52486679077117
20
59.146491895195553
10
-128.5978157234189
20
58.999661336418711
10
-127.67076465606661
20
59.146491895195567
10
-126.83445999145478
20
59.572610269066416
10
-126.17076465606661
20
60.236305127617428
0
LWPOLYLINE
5
142
100
AcDbEntity
8
0
100
AcDbPolyline
90
20
70
1
43
0.0
10
-61.77665111541728
20
-63.763017545222866
10
-61.350534172057962
20
-62.926711926936733
10
-61.203698844909482
20
-61.999661336421582
10
-61.350534172057962
20
-61.072610745906459
10
-61.776651115417351
20
-60.236305127620327
10
-62.440347404479795
20
-59.572610269069287
10
-63.276651115417337
20
-59.146491895198459
10
-64.203698844909525
20
-58.999661336421596
10
-65.130754203796215
20
-59.146491895198437
10
-65.967057914733687
20
-59.572610269069308
10
-66.630754203796201
20
-60.236305127620327
10
-67.05687114715559
20
-61.072610745906459
10
-67.203698844909496
20
-61.999661336421603
10
-67.05687114715559
20
-62.926711926936733
10
-66.630754203796272
20
-63.763017545222866
10
-65.967057914733758
20
-64.426711926936733
10
-65.130754203796215
20
-64.852830777644726
10
-64.203698844909525
20
-64.999661336421596
10
-63.276651115417337
20
-64.852830777644726
10
-62.440347404479795
20
-64.426711926936733
0
LWPOLYLINE
5
143
100
AcDbEntity
8
0
100
AcDbPolyline
90
20
70
1
43
0.0
10
-129.52486679077117
20
-59.146491895198409
10
-130.36117145538302
20
-59.572610269069258
10
-131.0248667907712
20
-60.23630512762027
10
-131.45098516464202
20
-61.072610745906402
10
-131.59781572341888
20
-61.999661336421553
10
-131.45098516464205
20
-62.926711926936676
10
-131.0248667907712
20
-63.763017545222809
10
-130.36117145538302
20
-64.426711926936676
10
-129.52486679077117
20
-64.85283077764467
10
-128.5978157234189
20
-64.999661336421539
10
-127.67076465606662
20
-64.852830777644698
10
-126.83445999145479
20
-64.426711926936676
10
-126.17076465606661
20
-63.763017545222809
10
-125.74464580535862
20
-62.926711926936676
10
-125.59781524658176
20
-61.999661336421553
10
-125.7446458053586
20
-61.072610745906402
10
-126.17076465606659
20
-60.236305127620291
10
-126.83445999145478
20
-59.572610269069258
10
-127.67076465606661
20
-59.146491895198409
10
-128.5978157234189
20
-58.999661336421539
0
LWPOLYLINE
5
144
100
AcDbEntity
8
0
100
AcDbPolyline
90
20
70
1
43
0.0
10
-61.776651115417351
20
-87.763016591548521
10
-61.350534172057962
20
-86.926712880611007
10
-61.203698844909553
20
-85.999661336421568
10
-61.350534172057962
20
-85.0726097922321
10
-61.776651115417351
20
-84.2363060812946
10
-62.440347404479795
20
-83.572609792232129
10
-63.276651115417337
20
-83.146490941524121
10
-64.203698844909525
20
-82.999661336421582
10
-65.130754203796215
20
-83.146490941524121
10
-65.967057914733758
20
-83.572609792232115
10
-66.630754203796272
20
-84.236306081294629
10
-67.05687114715559
20
-85.0726097922321
10
-67.203698844909496
20
-85.999661336421568
10
-67.05687114715559
20
-86.926712880611035
10
-66.630754203796272
20
-87.763016591548521
10
-65.967057914733758
20
-88.426712880611007
10
-65.130754203796215
20
-88.852829823970382
10
-64.203698844909525
20
-88.999661336421553
10
-63.276651115417337
20
-88.852829823970382
10
-62.440347404479795
20
-88.426712880611007
0
LWPOLYLINE
5
145
100
AcDbEntity
8
0
100
AcDbPolyline
90
20
70
1
43
0.0
10
-125.74464580535863
20
-86.926712880610978
10
-125.59781524658177
20
-85.999661336421525
10
-125.74464580535862
20
-85.072609792232058
10
-126.17076465606664
20
-84.236306081294558
10
-126.83445999145479
20
-83.572609792232072
10
-127.67076465606662
20
-83.146490941524064
10
-128.5978157234189
20
-82.999661336421525
10
-129.5248667907712
20
-83.146490941524064
10
-130.36117145538302
20
-83.572609792232072
10
-131.0248667907712
20
-84.236306081294572
10
-131.45098516464205
20
-85.072609792232058
10
-131.59781572341893
20
-85.999661336421525
10
-131.45098516464208
20
-86.926712880610978
10
-131.02486679077123
20
-87.763016591548478
10
-130.36117145538304
20
-88.426712880610964
10
-129.52486679077123
20
-88.852829823970353
10
-128.59781572341893
20
-88.999661336421511
10
-127.67076465606665
20
-88.852829823970353
10
-126.83445999145484
20
-88.426712880610978
10
-126.17076465606665
20
-87.763016591548464
0
CIRCLE
5
146
100
AcDbEntity
8
0
100
AcDbCircle
10
-265.09999414905911
20
14.69999871104816
30
0
40
1.7500000000000013
210
0
220
-0
230
1
0
LWPOLYLINE
5
147
100
AcDbEntity
8
0
100
AcDbPolyline
90
8
70
1
43
0.0
10
-236.39999397099018
20
-12.000000476838572
10
-236.39999397099018
20
11.99999952316144
42
0.41421356237309503
10
-238.39999397099018
20
13.999999523161442
10
-254.39999397099018
20
13.999999523161444
42
0.41421356237309503
10
-256.39999397099024
20
11.999999523161442
10
-256.39999397099018
20
-12.00000047683857
42
0.41421356237309503
10
-254.39999397099018
20
-14.000000476838572
10
-238.39999397099018
20
-14.000000476838572
42
0.41421356237309503
0
CIRCLE
5
148
100
AcDbEntity
8
0
100
AcDbCircle
10
-265.09999414905911
20
-14.699999664725286
30
0
40
1.7500000000000013
210
0
220
-0
230
1
0
CIRCLE
5
149
100
AcDbEntity
8
0
100
AcDbCircle
10
-277.69999386742717
20
-27.699999362976776
30
0
40
1.7500000000000018
210
0
220
-0
230
1
0
CIRCLE
5
150
100
AcDbEntity
8
0
100
AcDbCircle
10
-277.69999386742717
20
27.699998409299656
30
0
40
1.7500000000000018
210
0
220
-0
230
1
0
ENDSEC
0
SECTION
2
OBJECTS
0
DICTIONARY
5
C
100
AcDbDictionary
3
ACAD_GROUP
350
D
3
ACAD_MLINESTYLE
350
17
0
DICTIONARY
5
D
100
AcDbDictionary
0
DICTIONARY
5
1A
330
C
100
AcDbDictionary
0
DICTIONARY
5
17
100
AcDbDictionary
0
ENDSEC
0
EOF
