0
SECTION
2
HEADER
9
$INSUNITS
70
4
9
$ACADVER
1
AC1014
9
$HANDSEED
5
FFFF
0
ENDSEC
0
SECTION
2
TABLES
0
TABLE
2
VPORT
5
8
100
AcDbSymbolTable
0
ENDTAB
0
TABLE
2
LTYPE
5
5
100
AcDbSymbolTable
0
LTYPE
5
14
100
AcDbSymbolTableRecord
100
AcDbLinetypeTableRecord
2
BYBLOCK
70
0
0
LTYPE
5
15
100
AcDbSymbolTableRecord
100
AcDbLinetypeTableRecord
2
BYLAYER
70
0
0
ENDTAB
0
TABLE
2
LAYER
5
2
100
AcDbSymbolTable
70
2
0
LAYER
5
50
100
AcDbSymbolTableRecord
100
AcDbLayerTableRecord
2
0
70
0
6
CONTINUOUS
0
ENDTAB
0
TABLE
2
STYLE
5
3
100
AcDbSymbolTable
70
1
0
STYLE
5
11
100
AcDbSymbolTableRecord
100
AcDbTextStyleTableRecord
2
STANDARD
70
0
0
ENDTAB
0
TABLE
2
VIEW
5
6
100
AcDbSymbolTable
70
0
0
ENDTAB
0
TABLE
2
UCS
5
7
100
AcDbSymbolTable
70
0
0
ENDTAB
0
TABLE
2
APPID
5
9
100
AcDbSymbolTable
70
2
0
APPID
5
12
100
AcDbSymbolTableRecord
100
AcDbRegAppTableRecord
2
ACAD
70
0
0
ENDTAB
0
TABLE
2
DIMSTYLE
5
A
100
AcDbSymbolTable
70
1
0
ENDTAB
0
TABLE
2
BLOCK_RECORD
5
1
100
AcDbSymbolTable
70
1
0
BLOCK_RECORD
5
1F
100
AcDbSymbolTableRecord
100
AcDbBlockTableRecord
2
*MODEL_SPACE
0
BLOCK_RECORD
5
1B
100
AcDbSymbolTableRecord
100
AcDbBlockTableRecord
2
*PAPER_SPACE
0
ENDTAB
0
ENDSEC
0
SECTION
2
BLOCKS
0
BLOCK
5
20
100
AcDbEntity
100
AcDbBlockBegin
2
*MODEL_SPACE
0
ENDBLK
5
21
100
AcDbEntity
100
AcDbBlockEnd
0
BLOCK
5
1C
100
AcDbEntity
100
AcDbBlockBegin
2
*PAPER_SPACE
0
ENDBLK
5
1D
100
AcDbEntity
100
AcDbBlockEnd
0
ENDSEC
0
SECTION
2
ENTITIES
0
CIRCLE
5
100
100
AcDbEntity
8
0
100
AcDbCircle
10
-144.64999195933339
20
9.9999999999986038
30
0
40
1.750000000000008
210
0
220
-0
230
1
0
CIRCLE
5
101
100
AcDbEntity
8
0
100
AcDbCircle
10
-144.64999195933339
20
-10.00000000000141
30
0
40
1.750000000000008
210
0
220
-0
230
1
0
CIRCLE
5
102
100
AcDbEntity
8
0
100
AcDbCircle
10
-144.64999195933342
20
-75.000000000001435
30
0
40
1.750000000000008
210
0
220
-0
230
1
0
LWPOLYLINE
5
103
100
AcDbEntity
8
0
100
AcDbPolyline
90
4
70
1
43
0.0
10
-101.39999389648438
20
-86.500000983478103
10
-116.39999389648438
20
-86.500000983478103
42
0.99999999999999989
10
-116.39999389648438
20
-90.000000983478117
10
-101.39999389648438
20
-90.000000983478117
42
0.99999999999999989
0
LWPOLYLINE
5
104
100
AcDbEntity
8
0
100
AcDbPolyline
90
4
70
1
43
0.0
10
-116.3999938964844
20
-56.000000983478074
42
-0.99999999999999989
10
-116.39999389648438
20
-52.500000983478081
10
-101.3999938964843
20
-52.500000983478081
42
-0.99999999999999989
10
-101.39999389648435
20
-56.000000983478074
0
LWPOLYLINE
5
105
100
AcDbEntity
8
0
100
AcDbPolyline
90
4
70
1
43
0.0
10
-91.399993896484403
20
-81.500000983478088
42
-0.99999999999999989
10
-91.399993896484375
20
-78.000000983478088
10
-76.399993896484389
20
-78.000000983478074
42
-0.99999999999999989
10
-76.399993896484375
20
-81.500000983478103
0
CIRCLE
5
106
100
AcDbEntity
8
0
100
AcDbCircle
10
-144.64999195933339
20
59.999999999998622
30
0
40
1.750000000000008
210
0
220
-0
230
1
0
LWPOLYLINE
5
107
100
AcDbEntity
8
0
100
AcDbPolyline
90
4
70
1
43
0.0
10
-101.39999389648435
20
56.000000983475253
10
-116.39999389648435
20
56.00000098347526
42
0.99999999999999989
10
-116.39999389648435
20
52.500000983475246
10
-101.39999389648435
20
52.50000098347526
42
0.99999999999999989
0
LWPOLYLINE
5
108
100
AcDbEntity
8
0
100
AcDbPolyline
90
4
70
1
43
0.0
10
-91.399993896484347
20
86.50000098347526
10
-76.399993896484347
20
86.50000098347526
42
0.99999999999999989
10
-76.399993896484332
20
90.000000983475275
10
-91.399993896484347
20
90.000000983475275
42
0.99999999999999989
0
LWPOLYLINE
5
109
100
AcDbEntity
8
0
100
AcDbPolyline
90
4
70
1
43
0.0
10
-76.399993896484332
20
56.000000983475253
10
-91.399993896484347
20
56.00000098347526
42
0.99999999999999989
10
-91.399993896484347
20
52.500000983475246
10
-76.399993896484347
20
52.50000098347526
42
0.99999999999999989
0
LWPOLYLINE
5
110
100
AcDbEntity
8
0
100
AcDbPolyline
90
4
70
1
43
0.0
10
-76.399993896484332
20
64.500000983475246
10
-91.399993896484347
20
64.50000098347526
42
0.99999999999999989
10
-91.399993896484347
20
61.000000983475246
10
-76.399993896484347
20
61.000000983475253
42
0.99999999999999989
0
LWPOLYLINE
5
111
100
AcDbEntity
8
0
100
AcDbPolyline
90
4
70
1
43
0.0
10
-101.39999389648435
20
81.50000098347526
10
-116.39999389648435
20
81.50000098347526
42
0.99999999999999989
10
-116.39999389648435
20
78.00000098347526
10
-101.39999389648435
20
78.00000098347526
42
0.99999999999999989
0
CIRCLE
5
112
100
AcDbEntity
8
0
100
AcDbCircle
10
-48.149995833635266
20
74.999999999998622
30
0
40
1.750000000000008
210
0
220
-0
230
1
0
CIRCLE
5
113
100
AcDbEntity
8
0
100
AcDbCircle
10
-144.64999195933339
20
74.999999999998636
30
0
40
1.750000000000008
210
0
220
-0
230
1
0
LWPOLYLINE
5
114
100
AcDbEntity
8
0
100
AcDbPolyline
90
4
70
1
43
0.0
10
-76.399993896484332
20
-69.500000983478088
10
-91.399993896484375
20
-69.500000983478074
42
0.99999999999999989
10
-91.399993896484375
20
-73.000000983478103
10
-76.399993896484403
20
-73.000000983478088
42
0.99999999999999989
0
LWPOLYLINE
5
115
100
AcDbEntity
8
0
100
AcDbPolyline
90
4
70
1
43
0.0
10
-101.39999389648435
20
-61.000000983478074
42
-0.99999999999999989
10
-101.39999389648438
20
-64.500000983478074
10
-116.3999938964844
20
-64.500000983478074
42
-0.99999999999999989
10
-116.39999389648438
20
-61.000000983478074
0
CIRCLE
5
116
100
AcDbEntity
8
0
100
AcDbCircle
10
-48.149995833635302
20
-75.000000000001478
30
0
40
1.750000000000008
210
0
220
-0
230
1
0
CIRCLE
5
117
100
AcDbEntity
8
0
100
AcDbCircle
10
-144.64999195933342
20
-60.000000000001428
30
0
40
1.750000000000008
210
0
220
-0
230
1
0
CIRCLE
5
118
100
AcDbEntity
8
0
100
AcDbCircle
10
-48.149995833635266
20
-25.000000000001457
30
0
40
1.750000000000008
210
0
220
-0
230
1
0
LWPOLYLINE
5
119
100
AcDbEntity
8
0
100
AcDbPolyline
90
4
70
1
43
0.0
10
-101.39999389648439
20
-78.000000983478074
10
-116.39999389648438
20
-78.000000983478088
42
0.99999999999999989
10
-116.39999389648436
20
-81.500000983478103
10
-101.39999389648438
20
-81.500000983478103
42
0.99999999999999989
0
LWPOLYLINE
5
120
100
AcDbEntity
8
0
100
AcDbPolyline
90
4
70
1
43
0.0
10
-76.399993896484318
20
-52.500000983478081
42
-0.99999999999999989
10
-76.399993896484347
20
-56.000000983478074
10
-91.399993896484347
20
-56.000000983478088
42
-0.99999999999999989
10
-91.399993896484347
20
-52.500000983478074
0
LWPOLYLINE
5
121
100
AcDbEntity
8
0
100
AcDbPolyline
90
4
70
1
43
0.0
10
-91.399993896484375
20
-90.000000983478117
42
-0.99999999999999989
10
-91.399993896484375
20
-86.500000983478103
10
-76.399993896484347
20
-86.500000983478103
42
-0.99999999999999989
10
-76.399993896484403
20
-90.000000983478117
0
CIRCLE
5
122
100
AcDbEntity
8
0
100
AcDbCircle
10
-48.149995833635266
20
24.999999999998607
30
0
40
1.750000000000008
210
0
220
-0
230
1
0
LWPOLYLINE
5
123
100
AcDbEntity
8
0
100
AcDbPolyline
90
4
70
1
43
0.0
10
-101.39999389648435
20
64.500000983475246
10
-116.39999389648435
20
64.50000098347526
42
0.99999999999999989
10
-116.39999389648435
20
61.000000983475246
10
-101.39999389648435
20
61.000000983475253
42
0.99999999999999989
0
LWPOLYLINE
5
124
100
AcDbEntity
8
0
100
AcDbPolyline
90
4
70
1
43
0.0
10
-76.399993896484332
20
81.50000098347526
10
-91.399993896484347
20
81.50000098347526
42
0.99999999999999989
10
-91.399993896484347
20
78.00000098347526
10
-76.399993896484347
20
78.00000098347526
42
0.99999999999999989
0
LWPOLYLINE
5
125
100
AcDbEntity
8
0
100
AcDbPolyline
90
4
70
1
43
0.0
10
-101.39999389648435
20
90.000000983475275
10
-116.39999389648435
20
90.000000983475275
42
0.99999999999999989
10
-116.39999389648435
20
86.50000098347526
10
-101.39999389648435
20
86.50000098347526
42
0.99999999999999989
0
LWPOLYLINE
5
126
100
AcDbEntity
8
0
100
AcDbPolyline
90
4
70
1
43
0.0
10
-91.399993896484347
20
69.500000983475246
10
-76.399993896484347
20
69.50000098347526
42
0.99999999999999989
10
-76.399993896484332
20
73.00000098347526
10
-91.399993896484347
20
73.000000983475275
42
0.99999999999999989
0
LWPOLYLINE
5
127
100
AcDbEntity
8
0
100
AcDbPolyline
90
4
70
1
43
0.0
10
-101.39999389648435
20
73.00000098347526
10
-116.39999389648435
20
73.000000983475275
42
0.99999999999999989
10
-116.39999389648435
20
69.500000983475246
10
-101.39999389648435
20
69.500000983475275
42
0.99999999999999989
0
CIRCLE
5
128
100
AcDbEntity
8
0
100
AcDbCircle
10
-48.149995833635266
20
59.999999999998614
30
0
40
1.750000000000008
210
0
220
-0
230
1
0
CIRCLE
5
129
100
AcDbEntity
8
0
100
AcDbCircle
10
-144.64999195933339
20
24.999999999998614
30
0
40
1.750000000000008
210
0
220
-0
230
1
0
LWPOLYLINE
5
130
100
AcDbEntity
8
0
100
AcDbPolyline
90
4
70
1
43
0.0
10
-76.39999389648429
20
-61.000000983478074
10
-91.399993896484375
20
-61.000000983478067
42
0.99999999999999989
10
-91.399993896484375
20
-64.500000983478088
10
-76.399993896484375
20
-64.500000983478074
42
0.99999999999999989
0
LWPOLYLINE
5
131
100
AcDbEntity
8
0
100
AcDbPolyline
90
4
70
1
43
0.0
10
-101.39999389648439
20
-69.500000983478088
10
-116.39999389648438
20
-69.500000983478074
42
0.99999999999999989
10
-116.39999389648436
20
-73.000000983478103
10
-101.39999389648438
20
-73.000000983478088
42
0.99999999999999989
0
CIRCLE
5
132
100
AcDbEntity
8
0
100
AcDbCircle
10
-48.149995833635302
20
-60.000000000001478
30
0
40
1.750000000000008
210
0
220
-0
230
1
0
CIRCLE
5
133
100
AcDbEntity
8
0
100
AcDbCircle
10
-144.64999195933339
20
-25.000000000001407
30
0
40
1.750000000000008
210
0
220
-0
230
1
0
CIRCLE
5
134
100
AcDbEntity
8
0
100
AcDbCircle
10
-56.399990543723035
20
39.999999523161435
30
0
40
1.7499999999999991
210
-4.5882678303188805e-60
220
-4.4841550858394146e-44
230
1
0
CIRCLE
5
135
100
AcDbEntity
8
0
100
AcDbCircle
10
-146.39999389648438
20
-90.000000000001421
30
0
40
2.7499999999999867
210
6.3108872417680944e-30
220
-4.5487292148734776e-44
230
1
0
LWPOLYLINE
5
136
100
AcDbEntity
8
0
100
AcDbPolyline
90
20
70
1
43
0.0
10
-62.438816412091427
20
-83.57261026906923
10
-63.275121076703229
20
-83.146491418361208
10
-64.202172144055538
20
-82.999661813258683
10
-65.129223211407805
20
-83.146491418361208
10
-65.96552787601965
20
-83.57261026906923
10
-66.629223211407833
20
-84.23630655813173
10
-67.055342062115812
20
-85.072610269069202
10
-67.202172620892711
20
-85.999661813258683
10
-67.055342062115812
20
-86.926713357448122
10
-66.629223211407833
20
-87.763017068385636
10
-65.96552787601965
20
-88.426713357448108
10
-65.129223211407847
20
-88.852830300807497
10
-64.202172144055538
20
-88.999661813258655
10
-63.275121076703229
20
-88.852830300807497
10
-62.438816412091427
20
-88.426713357448108
10
-61.775121076703243
20
-87.763017068385636
10
-61.349002702832394
20
-86.926713357448122
10
-61.202172144055531
20
-85.999661813258683
10
-61.349002702832394
20
-85.072610269069202
10
-61.775121076703243
20
-84.236306558131702
0
LWPOLYLINE
5
137
100
AcDbEntity
8
0
100
AcDbPolyline
90
4
70
1
43
0.0
10
-101.39999389648435
20
46.000000983475246
42
-0.99999999999999989
10
-101.39999389648435
20
42.500000983475246
10
-116.39999389648435
20
42.500000983475239
42
-0.99999999999999989
10
-116.39999389648435
20
46.000000983475253
0
LWPOLYLINE
5
138
100
AcDbEntity
8
0
100
AcDbPolyline
90
4
70
1
43
0.0
10
-116.39999389648435
20
-37.50000098347806
42
-0.99999999999999989
10
-116.39999389648435
20
-34.000000983478067
10
-101.39999389648435
20
-34.00000098347806
42
-0.99999999999999989
10
-101.39999389648435
20
-37.500000983478067
0
LWPOLYLINE
5
139
100
AcDbEntity
8
0
100
AcDbPolyline
90
4
70
1
43
0.0
10
-101.39999389648435
20
-42.50000098347806
42
-0.99999999999999989
10
-101.39999389648435
20
-46.000000983478074
10
-116.39999389648435
20
-46.000000983478067
42
-0.99999999999999989
10
-116.39999389648435
20
-42.500000983478074
0
CIRCLE
5
140
100
AcDbEntity
8
0
100
AcDbCircle
10
-56.399990543723035
20
-40.000000476838608
30
0
40
1.7499999999999991
210
-4.5882678303188805e-60
220
-4.4841550858394146e-44
230
1
0
LWPOLYLINE
5
141
100
AcDbEntity
8
0
100
AcDbPolyline
90
20
70
1
43
0.0
10
-130.35964046299466
20
64.426711450096747
10
-131.02333675205716
20
63.763017068382872
10
-131.44945369541648
20
62.926711450096739
10
-131.59628902256497
20
61.999660859581596
10
-131.44945369541648
20
61.072610269066473
10
-131.02333675205711
20
60.23630465078034
10
-130.35964046299466
20
59.572609792229301
10
-129.52333675205711
20
59.146491418358465
10
-128.59628902256492
20
58.99966085958161
10
-127.66923366367823
20
59.146491418358451
10
-126.83292995274076
20
59.572609792229315
10
-126.16923366367826
20
60.23630465078034
10
-125.74311672031885
20
61.072610269066473
10
-125.59628902256495
20
61.99966085958161
10
-125.74311672031885
20
62.926711450096739
10
-126.16923366367817
20
63.763017068382872
10
-126.8329299527407
20
64.426711450096747
10
-127.66923366367823
20
64.85283030080474
10
-128.59628902256492
20
64.99966085958161
10
-129.52333675205711
20
64.85283030080474
0
LWPOLYLINE
5
142
100
AcDbEntity
8
0
100
AcDbPolyline
90
20
70
1
43
0.0
10
-131.02333675205711
20
-84.236306558131773
10
-131.44945369541645
20
-85.072610269069244
10
-131.59628902256492
20
-85.999661813258712
10
-131.44945369541648
20
-86.926713357448193
10
-131.02333675205708
20
-87.763017068385665
10
-130.35964046299463
20
-88.426713357448179
10
-129.52333675205713
20
-88.85283030080754
10
-128.59628902256495
20
-88.999661813258726
10
-127.66923366367821
20
-88.85283030080754
10
-126.83292995274071
20
-88.426713357448179
10
-126.1692336636782
20
-87.763017068385665
10
-125.74311672031882
20
-86.926713357448165
10
-125.59628902256492
20
-85.999661813258712
10
-125.74311672031882
20
-85.072610269069244
10
-126.16923366367817
20
-84.236306558131773
10
-126.8329299527407
20
-83.572610269069258
10
-127.66923366367823
20
-83.146491418361251
10
-128.59628902256492
20
-82.999661813258712
10
-129.52333675205708
20
-83.146491418361251
10
-130.35964046299461
20
-83.572610269069258
0
LWPOLYLINE
5
143
100
AcDbEntity
8
0
100
AcDbPolyline
90
4
70
1
43
0.0
10
-76.399993896484361
20
37.500000983475232
42
-0.99999999999999989
10
-76.399993896484318
20
34.000000983475239
10
-91.399993896484347
20
34.000000983475239
42
-0.99999999999999989
10
-91.399993896484347
20
37.500000983475246
0
LWPOLYLINE
5
144
100
AcDbEntity
8
0
100
AcDbPolyline
90
4
70
1
43
0.0
10
-76.399993896484318
20
-34.000000983478067
42
-0.99999999999999989
10
-76.399993896484347
20
-37.500000983478074
10
-91.399993896484347
20
-37.50000098347806
42
-0.99999999999999989
10
-91.399993896484347
20
-34.000000983478067
0
LWPOLYLINE
5
145
100
AcDbEntity
8
0
100
AcDbPolyline
90
20
70
1
43
0.0
10
-126.16923366367821
20
-63.76301802206001
10
-125.74311672031885
20
-62.926712403773863
10
-125.59628902256495
20
-61.999661813258733
10
-125.74311672031885
20
-61.072611222743603
10
-126.16923366367817
20
-60.236305604457471
10
-126.8329299527407
20
-59.572610745906438
10
-127.66923366367823
20
-59.14649237203561
10
-128.59628902256492
20
-58.99966181325874
10
-129.52333675205711
20
-59.146492372035588
10
-130.35964046299461
20
-59.572610745906459
10
-131.02333675205713
20
-60.236305604457471
10
-131.44945369541645
20
-61.072611222743603
10
-131.59628902256492
20
-61.999661813258754
10
-131.44945369541645
20
-62.926712403773877
10
-131.02333675205711
20
-63.763018022059995
10
-130.35964046299461
20
-64.426712403773877
10
-129.52333675205711
20
-64.852831254481885
10
-128.59628902256492
20
-64.999661813258726
10
-127.6692336636782
20
-64.852831254481856
10
-126.83292995274073
20
-64.426712403773877
0
LWPOLYLINE
5
146
100
AcDbEntity
8
0
100
AcDbPolyline
90
20
70
1
43
0.0
10
-64.202172144055538
20
-64.999661813258683
10
-63.275121076703265
20
-64.852831254481828
10
-62.438816412091427
20
-64.426712403773806
10
-61.775121076703243
20
-63.763018022059953
10
-61.349002702832394
20
-62.92671240377382
10
-61.202172144055567
20
-61.999661813258683
10
-61.349002702832394
20
-61.072611222743554
10
-61.775121076703243
20
-60.236305604457421
10
-62.438816412091427
20
-59.572610745906388
10
-63.275121076703265
20
-59.146492372035539
10
-64.202172144055538
20
-58.999661813258712
10
-65.129223211407847
20
-59.146492372035553
10
-65.96552787601965
20
-59.572610745906402
10
-66.629223211407833
20
-60.236305604457421
10
-67.055342062115841
20
-61.072611222743554
10
-67.202172620892711
20
-61.999661813258683
10
-67.055342062115841
20
-62.92671240377382
10
-66.629223211407833
20
-63.763018022059953
10
-65.96552787601965
20
-64.426712403773806
10
-65.129223211407847
20
-64.852831254481828
0
CIRCLE
5
147
100
AcDbEntity
8
0
100
AcDbCircle
10
-146.39999389648435
20
89.999999999998607
30
0
40
2.7500000000000218
210
-9.1765356606377655e-60
220
-8.9683101716788312e-44
230
1
0
LWPOLYLINE
5
148
100
AcDbEntity
8
0
100
AcDbPolyline
90
4
70
1
43
0.0
10
-101.39999389648435
20
37.500000983475239
42
-0.99999999999999989
10
-101.39999389648435
20
34.000000983475246
10
-116.39999389648435
20
34.000000983475239
42
-0.99999999999999989
10
-116.39999389648435
20
37.500000983475246
0
CIRCLE
5
149
100
AcDbEntity
8
0
100
AcDbCircle
10
-46.399993896484304
20
-90.000000000001478
30
0
40
2.7500000000000044
210
6.3108872417680944e-30
220
-6.4574129034062959e-46
230
1
0
LWPOLYLINE
5
150
100
AcDbEntity
8
0
100
AcDbPolyline
90
20
70
1
43
0.0
10
-63.275121076703229
20
83.146490464684064
10
-62.438816412091427
20
83.572609315392086
10
-61.775121076703243
20
84.236305604454586
10
-61.349002702832394
20
85.072609315392071
10
-61.202172144055567
20
85.999660859581525
10
-61.349002702832394
20
86.926712403770978
10
-61.775121076703243
20
87.763016114708492
10
-62.438816412091427
20
88.426712403770978
10
-63.275121076703229
20
88.852829347130353
10
-64.202172144055538
20
88.999660859581525
10
-65.129223211407805
20
88.852829347130353
10
-65.96552787601965
20
88.426712403770992
10
-66.629223211407833
20
87.763016114708478
10
-67.055342062115812
20
86.926712403770978
10
-67.202172620892668
20
85.999660859581525
10
-67.055342062115812
20
85.072609315392071
10
-66.629223211407833
20
84.236305604454571
10
-65.96552787601965
20
83.572609315392086
10
-65.129223211407847
20
83.146490464684064
10
-64.202172144055538
20
82.999660859581539
0
LWPOLYLINE
5
151
100
AcDbEntity
8
0
100
AcDbPolyline
90
8
70
1
43
0.0
10
-82.399993896484347
20
27.999999999998614
42
-0.41421356237310542
10
-81.399993896484347
20
26.9999999999986
10
-81.399993896484361
20
25.999999999998607
42
-0.41421356237309631
10
-82.399993896484347
20
24.999999999998607
10
-110.39999389648435
20
24.999999999998586
42
-0.41421356237310025
10
-111.39999389648435
20
25.9999999999986
10
-111.39999389648432
20
26.999999999998593
42
-0.41421356237309631
10
-110.39999389648432
20
27.999999999998593
0
LWPOLYLINE
5
152
100
AcDbEntity
8
0
100
AcDbPolyline
90
4
70
1
43
0.0
10
-91.399993896484347
20
42.500000983475239
42
-0.99999999999999989
10
-91.399993896484347
20
46.000000983475253
10
-76.399993896484361
20
46.000000983475246
42
-0.99999999999999989
10
-76.399993896484318
20
42.500000983475246
0
LWPOLYLINE
5
153
100
AcDbEntity
8
0
100
AcDbPolyline
90
20
70
1
43
0.0
10
-65.96552787601965
20
64.42671145009669
10
-66.629223211407833
20
63.763017068382823
10
-67.055342062115812
20
62.92671145009669
10
-67.202172620892711
20
61.99966085958156
10
-67.055342062115841
20
61.072610269066416
10
-66.629223211407833
20
60.236304650780298
10
-65.96552787601965
20
59.572609792229265
10
-65.129223211407847
20
59.146491418358416
10
-64.202172144055538
20
58.999660859581553
10
-63.275121076703265
20
59.146491418358416
10
-62.438816412091427
20
59.572609792229265
10
-61.775121076703243
20
60.236304650780284
10
-61.349002702832429
20
61.072610269066416
10
-61.202172144055567
20
61.99966085958156
10
-61.349002702832394
20
62.92671145009669
10
-61.775121076703243
20
63.763017068382823
10
-62.438816412091427
20
64.42671145009669
10
-63.275121076703265
20
64.852830300804683
10
-64.202172144055538
20
64.999660859581553
10
-65.129223211407847
20
64.852830300804698
0
LWPOLYLINE
5
154
100
AcDbEntity
8
0
100
AcDbPolyline
90
20
70
1
43
0.0
10
-131.44945369541648
20
85.0726093153921
10
-131.02333675205711
20
84.236305604454614
10
-130.35964046299466
20
83.572609315392143
10
-129.52333675205711
20
83.146490464684121
10
-128.59628902256492
20
82.999660859581596
10
-127.66923366367823
20
83.146490464684121
10
-126.8329299527407
20
83.572609315392128
10
-126.16923366367817
20
84.236305604454628
10
-125.74311672031885
20
85.0726093153921
10
-125.59628902256493
20
85.999660859581581
10
-125.74311672031884
20
86.926712403771035
10
-126.16923366367816
20
87.763016114708535
10
-126.83292995274067
20
88.42671240377102
10
-127.66923366367821
20
88.852829347130395
10
-128.59628902256492
20
88.999660859581567
10
-129.52333675205711
20
88.852829347130395
10
-130.35964046299463
20
88.42671240377102
10
-131.02333675205708
20
87.763016114708535
10
-131.44945369541648
20
86.92671240377102
10
-131.59628902256489
20
85.999660859581581
0
LWPOLYLINE
5
155
100
AcDbEntity
8
0
100
AcDbPolyline
90
8
70
1
43
0.0
10
-81.399993896484361
20
-27.000000000001418
42
-0.41421356237309631
10
-82.399993896484347
20
-28.000000000001421
10
-110.39999389648435
20
-28.000000000001435
42
-0.41421356237310025
10
-111.39999389648435
20
-27.000000000001421
10
-111.39999389648432
20
-26.000000000001432
42
-0.41421356237309631
10
-110.39999389648432
20
-25.000000000001428
10
-82.399993896484332
20
-25.000000000001414
42
-0.41421356237310025
10
-81.399993896484347
20
-26.000000000001428
0
LWPOLYLINE
5
156
100
AcDbEntity
8
0
100
AcDbPolyline
90
4
70
1
43
0.0
10
-76.399993896484347
20
-42.50000098347806
42
-0.99999999999999989
10
-76.399993896484347
20
-46.000000983478074
10
-91.399993896484347
20
-46.000000983478067
42
-0.99999999999999989
10
-91.399993896484347
20
-42.500000983478074
0
CIRCLE
5
157
100
AcDbEntity
8
0
100
AcDbCircle
10
-46.399993896484304
20
89.999999999998636
30
0
40
2.7500000000000044
210
6.3108872417680944e-30
220
-6.4574129034062959e-46
230
1
0
CIRCLE
5
158
100
AcDbEntity
8
0
100
AcDbCircle
10
-136.39999054372308
20
-40.000000476838586
30
0
40
1.7500000000000004
210
4.5882678303188811e-60
220
4.4841550858394146e-44
230
1
0
CIRCLE
5
159
100
AcDbEntity
8
0
100
AcDbCircle
10
-146.39999389648435
20
-50.000000000001414
30
0
40
2.7499999999999867
210
6.3108872417680944e-30
220
-4.5487292148734776e-44
230
1
0
CIRCLE
5
160
100
AcDbEntity
8
0
100
AcDbCircle
10
-46.399993896484304
20
-50.000000000001428
30
0
40
2.7500000000000044
210
6.3108872417680944e-30
220
-6.4574129034062959e-46
230
1
0
CIRCLE
5
161
100
AcDbEntity
8
0
100
AcDbCircle
10
-146.39999389648435
20
49.999999999998607
30
0
40
2.7499999999999867
210
6.3108872417680944e-30
220
-4.5487292148734776e-44
230
1
0
CIRCLE
5
162
100
AcDbEntity
8
0
100
AcDbCircle
10
-136.39999054372308
20
39.999999523161456
30
0
40
1.7500000000000004
210
4.5882678303188811e-60
220
4.4841550858394146e-44
230
1
0
CIRCLE
5
163
100
AcDbEntity
8
0
100
AcDbCircle
10
-46.399993896484304
20
49.999999999998586
30
0
40
2.7500000000000044
210
6.3108872417680944e-30
220
-6.4574129034062959e-46
230
1
0
CIRCLE
5
164
100
AcDbEntity
8
0
100
AcDbCircle
10
-96.399993896484347
20
-1.414599676715604e-12
30
0
40
2.5000000000000009
210
0
220
-0
230
1
0
LWPOLYLINE
5
165
100
AcDbEntity
8
0
100
AcDbPolyline
90
8
70
1
43
0.0
10
-36.39999389648429
20
89.999999999998607
10
-36.399993896484304
20
-90.00000000000145
42
-0.41421356237309659
10
-46.399993896484339
20
-100.00000000000148
10
-146.39999389648438
20
-100.00000000000141
42
-0.41421356237309453
10
-156.39999389648435
20
-90.000000000001435
10
-156.39999389648438
20
89.999999999998636
42
-0.41421356237309453
10
-146.39999389648435
20
99.99999999999865
10
-46.399993896484304
20
99.99999999999865
42
-0.41421356237309553
0
ENDSEC
0
SECTION
2
OBJECTS
0
DICTIONARY
5
C
100
AcDbDictionary
3
ACAD_GROUP
350
D
3
ACAD_MLINESTYLE
350
17
0
DICTIONARY
5
D
100
AcDbDictionary
0
DICTIONARY
5
1A
330
C
100
AcDbDictionary
0
DICTIONARY
5
17
100
AcDbDictionary
0
ENDSEC
0
EOF
